# xmcd
#
# Track frame offsets: 
#        150
#        14831
#        32971
#        49823
#        66569
#        68706
#        83309
#        98343
#        111395
#        126671
#        141466
#        143559
#        156524
#        174225
#        188700
#        196816
#        209577
#        225560
#        232760
#        244295
#        259943
#        274673
#        290187
#        301595
#        314566
#
# Disc length: 4368 seconds
#
# Revision: 3
# Processed by: cddbd v1.5.2PL0 Copyright (c) Steve Scherf et al.
# Submitted via: ExactAudioCopy v1.3
#
DISCID=77110e19
DTITLE=Крёстная Семья - Жизнь Или Кошелёк
DYEAR=2005
DGENRE=Rap
TTITLE0=Осень
TTITLE1=Чаек
TTITLE2=Кепочка feat. Ирка
TTITLE3=Патинахате
TTITLE4=Зеленые Евро (Кузьмич)
TTITLE5=Счетчик
TTITLE6=Картишки (RMX)
TTITLE7=Крыша
TTITLE8=Удача
TTITLE9=Загуляли Пацаны
TTITLE10=Скит Петруча
TTITLE11=Цыпа Цыпа
TTITLE12=Маза feat. Л. Dimoss
TTITLE13=На Карнавале
TTITLE14=Хаммер (Кузьмич)
TTITLE15=Шаланды
TTITLE16=Чемоданчик feat. DJ Хобот
TTITLE17=Траффик (Кузьмич)
TTITLE18=Барыга
TTITLE19=Полоса
TTITLE20=Маи Пацаны feat. Geegun
TTITLE21=Пацану Пох
TTITLE22=Стиль Грязный
TTITLE23=Ролексы (Remix DJ Zema)
TTITLE24=Картишки (Remix DJ Zema)
EXTD=
EXTT0=
EXTT1=
EXTT2=
EXTT3=
EXTT4=
EXTT5=
EXTT6=
EXTT7=
EXTT8=
EXTT9=
EXTT10=
EXTT11=
EXTT12=
EXTT13=
EXTT14=
EXTT15=
EXTT16=
EXTT17=
EXTT18=
EXTT19=
EXTT20=
EXTT21=
EXTT22=
EXTT23=
EXTT24=
PLAYORDER=
